# xmcd
#
# Track frame offsets: 
#        150
#        15250
#        31501
#        48560
#        66352
#        87571
#        103246
#        117940
#        136023
#        142995
#        161364
#
# Disc length: 2535 seconds
#
# Revision: 2
# Processed by: cddbd v1.5.2PL0 Copyright (c) Steve Scherf et al.
# Submitted via: ExactAudioCopy v1.0b3
#
DISCID=8709e50b
DTITLE=COOL&CREATE - Flowering ERINNNNNN!!
DYEAR=2007
DGENRE=東方アレンジ
TTITLE0=レザマリでもつらくないっ！(Live ver.)
TTITLE1=ラクト・ガール(Live ver.)
TTITLE2=drizzly rain
TTITLE3=としょかんのおと
TTITLE4=Help me, ERINNNNNN!!
TTITLE5=最終鬼畜一部声
TTITLE6=Re: The title lies in ... you.
TTITLE7=(bonus track) No.1
TTITLE8=(bonus track) No.2
TTITLE9=(bonus track) No.3
TTITLE10=(bonus track) No.4
EXTD=
EXTT0=
EXTT1=
EXTT2=
EXTT3=
EXTT4=
EXTT5=
EXTT6=
EXTT7=
EXTT8=
EXTT9=
EXTT10=
PLAYORDER=
